# AST/ASF file generated using VICON BodyLanguage
# -----------------------------------------------
:version 1.10
:name VICON
:units
  mass 1.0
  length 0.45
  angle deg
:documentation
   .ast/.asf automatically generated from VICON data using
   VICON BodyBuilder and BodyLanguage model FoxedUp or BRILLIANT.MOD
:root
   order TX TY TZ RX RY RZ
   axis XYZ
   position 0 0 0  
   orientation 0 0 0 
:bonedata
  begin
     id 1 
     name lhipjoint
     direction 0.612567 -0.751349 0.245431 
     length 2.42285 
     axis 0 0 0  XYZ
  end
  begin
     id 2 
     name lfemur
     direction 0.34202 -0.939693 0  
     length 7.11304  
     axis 0 0 20  XYZ
    dof rx ry rz
    limits (-160.0 20.0)
           (-70.0 70.0)
           (-60.0 70.0)
  end
  begin
     id 3 
     name ltibia
     direction 0.34202 -0.939693 0   
     length 7.84529   
     axis 0 0 20   XYZ
    dof rx
    limits (-10.0 170.0)
  end
  begin
     id 4 
     name lfoot
     direction 0.0779239 -0.214094 0.9737   
     length 1.97176   
     axis -90 7.62852e-016 20   XYZ
    dof rx rz
    limits (-45.0 90.0)
           (-70.0 20.0)
  end
  begin
     id 5 
     name ltoes
     direction 1.53565e-011 -4.21709e-011 1   
     length 0.993197   
     axis -90 7.62852e-016 20   XYZ
    dof rx
    limits (-90.0 20.0)
  end
  begin
     id 6 
     name rhipjoint
     direction -0.665722 -0.709315 0.231701   
     length 2.56642  
     axis 0 0 0  XYZ 
  end
  begin
     id 7 
     name rfemur
     direction -0.34202 -0.939693 0   
     length 7.32108   
     axis 0 0 -20   XYZ
    dof rx ry rz
    limits (-160.0 20.0)
           (-70.0 70.0)
           (-70.0 60.0)
  end
  begin
     id 8 
     name rtibia
     direction -0.34202 -0.939693 0   
     length 7.81254   
     axis 0 0 -20   XYZ
    dof rx
    limits (-10.0 170.0)
 end
 begin
     id 9 
     name rfoot
     direction -0.0832806 -0.228812 0.969902   
     length 2.08278  
     axis -90 -7.62852e-016 -20   XYZ
    dof rx rz
    limits (-45.0 90.0)
           (-20.0 70.0)
  end
  begin
     id 10 
     name rtoes
     direction -1.53589e-011 -4.22086e-011 1   
     length 1.04609   
     axis -90 -7.62852e-016 -20   XYZ
    dof rx
    limits (-90.0 20.0)
  end
  begin
     id 11 
     name lowerback
     direction -0.00506013 0.988403 -0.151766   
     length 2.01978   
     axis 0 0 0   XYZ
    dof rx ry rz
    limits (-20.0 45.0)
           (-30.0 30.0)
           (-30.0 30.0)
  end
  begin
     id 12 
     name upperback
     direction -0.00836389 0.99968 0.0238859   
     length 2.01276   
     axis 0 0 0   XYZ
    dof rx ry rz
    limits (-20.0 45.0)
           (-30.0 30.0)
           (-30.0 30.0)
  end
  begin
     id 13 
     name thorax
     direction -0.00684136 0.995386 0.0957043   
     length 2.07303   
     axis 0 0 0   XYZ
    dof rx ry rz
    limits (-20.0 45.0)
           (-30.0 30.0)
           (-30.0 30.0)
  end
  begin
     id 14 
     name lowerneck
     direction -0.0161045 0.999661 0.0204485   
     length 1.91243   
     axis 0 0 0   XYZ
    dof rx ry rz
    limits (-20.0 45.0)
           (-30.0 30.0)
           (-30.0 30.0)
  end
  begin
     id 15 
     name upperneck
     direction 0.0553583 0.990946 -0.122319   
     length 1.91574   
     axis 0 0 0   XYZ
    dof rx ry rz
    limits (-20.0 45.0)
           (-30.0 30.0)
           (-30.0 30.0)
  end
  begin
     id 16
     name head
     direction 0.0180273 0.998839 -0.0446756  
     length 1.92693  
     axis 0 0 0   XYZ
    dof rx ry rz
    limits (-20.0 45.0)
           (-30.0 30.0)
           (-30.0 30.0)
  end
  begin
     id 17 
     name lclavicle
     direction 0.945646 0.319323 -0.0615358  
     length 4.0076  
     axis 0 0 0   XYZ
    dof ry rz
    limits (-20.0 10.0)
           (0.0 20.0)
  end
  begin
     id 18 
     name lhumerus
     direction 1 -4.48967e-011 -2.79996e-027   
     length 5.64147   
     axis 180 -30 -90   XYZ
    dof rx ry rz
    limits (-60.0 90.0)
           (-90.0 90.0)
           (-90.0 90.0)
  end
  begin
     id 19
     name lradius
     direction 1 -4.48976e-011 -9.5122e-027   
     length 2.86444   
     axis 180 -30 -90   XYZ
    dof rx
    limits (-10.0 170.0)
  end
  begin
     id 20
     name lwrist
     direction 1 -4.48983e-011 -1.24047e-026   
     length 1.43222   
     axis 9.05591e-015 90 90   XYZ
    dof ry
    limits (-180.0 0.0)
 end
  begin
     id 21 
     name lhand
     direction 1 -4.4892e-011 -2.48094e-026   
     length 0.722123   
     axis 1.58305e-014 90 90   XYZ
    dof rx rz
    limits (-90.0 90.0)
           (-45.0 45.0)
  end
  begin
     id 22 
     name lfingers
     direction 1 -4.48895e-011 -4.96187e-026   
     length 0.582194   
     axis 3.1661e-014 90 90   XYZ
    dof rx
    limits (0.0 90.0)
  end
  begin
     id 23
     name lthumb
     direction 0.707107 -6.34961e-011 0.707107   
     length 0.835918   
     axis -90 45 2.85299e-015   XYZ
    dof rx rz
    limits (-45.0 45.0)
           (-45.0 45.0)
  end
  begin
     id 24 
     name rclavicle
     direction -0.932635 0.324218 -0.15835   
     length 3.65819  
     axis 0 0 0   XYZ 
    dof ry rz
    limits (-10.0 20.0)
           (-20.0 0.0)
  end
  begin
     id 25 
     name rhumerus
     direction -1 -4.48965e-011 -4.02296e-027  
     length 5.44729   
     axis 180 30 90   XYZ
    dof rx ry rz
    limits (-90.0 60.0)
           (-90.0 90.0)
           (-90.0 90.0)
  end
  begin
     id 26 
     name rradius
     direction -1 -4.48957e-011 -8.81087e-027   
     length 3.08821   
     axis 180 30 90   XYZ
    dof rx
    limits (-10.0 170.0)
  end
  begin
     id 27 
     name rwrist
     direction -1 -4.49015e-011 -1.24047e-026   
     length 1.5441   
     axis 9.05591e-015 -90 -90   XYZ
    dof ry
    limits (-180.0 0.0)
  end
  begin
     id 28
     name rhand
     direction -1 -4.4891e-011 -2.48094e-026   
     length 0.821049   
     axis 1.58305e-014 -90 -90   XYZ
    dof rx rz
    limits (-90.0 90.0)
           (-45.0 45.0)
  end
  begin
     id 29
     name rfingers
     direction -1 -4.48985e-011 -4.96187e-026   
     length 0.661951   
     axis 3.1661e-014 -90 -90   XYZ
    dof rx
    limits (0.0 90.0)
  end
  begin
     id 30
     name rthumb
     direction -0.707107 -6.34906e-011 0.707107   
     length 0.950433   
     axis -90 -45 -2.85299e-015   XYZ
    dof rx rz
    limits (-45.0 45.0)
           (-45.0 45.0)
  end
:hierarchy
  begin
    root lhipjoint rhipjoint lowerback
    lhipjoint lfemur
    lfemur ltibia
    ltibia lfoot
    lfoot ltoes
    rhipjoint rfemur
    rfemur rtibia
    rtibia rfoot
    rfoot rtoes
    lowerback upperback
    upperback thorax
    thorax lowerneck lclavicle rclavicle
    lowerneck upperneck
    upperneck head
    lclavicle lhumerus
    lhumerus lradius
    lradius lwrist
    lwrist lhand lthumb
    lhand lfingers
    rclavicle rhumerus
    rhumerus rradius
    rradius rwrist
    rwrist rhand rthumb
    rhand rfingers
  end

#!OML:ASF F:\VICON\USERDATA\INSTALL\rory3\rory3.ASF
:FULLY-SPECIFIED
:DEGREES
439
root 2.79462 17.6477 0.157062 -169.624 70.7111 -168.808
lowerback 10.2633 3.82307 -0.172906
upperback 3.51568 5.1831 -2.38155
thorax -1.86637 2.67547 -2.96913
lowerneck -9.72577 3.3639 -0.148263
upperneck 13.7535 3.7307 7.54784
head 5.60199 2.46061 2.68961
rclavicle 2.48481e-014 -3.18055e-015
rhumerus 4.79906 59.1079 -83.5175
rradius 92.9176
rwrist -56.8716
rhand -25.2537 13.983
rfingers 7.12502
rthumb 1.2665 -15.993
lclavicle 2.48481e-014 -3.18055e-015
lhumerus 110.706 -65.7587 -56.9414
lradius 86.7771
lwrist 74.4114
lhand -14.1787 17.5921
lfingers 7.12502
lthumb 11.9568 47.2306
rfemur 2.52856 -7.22598 23.2194
rtibia 12.5032
rfoot -23.3547 -15.7548
rtoes -3.64275
lfemur -11.0255 -4.97539 -12.6314
ltibia 20.2083
lfoot -6.72968 -13.4386
ltoes 3.61655
440
root 2.78842 17.6508 0.154357 -169.586 70.3854 -168.726
lowerback 10.6379 3.79439 -0.143213
upperback 3.53606 5.14721 -2.38747
thorax -2.04831 2.65817 -3.01748
lowerneck -9.67982 3.30087 -0.235271
upperneck 13.564 3.6416 7.74916
head 5.53283 2.42345 2.75505
rclavicle 2.06736e-014 1.43125e-014
rhumerus 6.3427 61.0008 -80.3045
rradius 95.7418
rwrist -57.1801
rhand -24.7102 13.2607
rfingers 7.12502
rthumb 1.79144 -16.7115
lclavicle 2.06736e-014 1.43125e-014
lhumerus 110.998 -65.7953 -58.7244
lradius 90.1731
lwrist 75.8425
lhand -13.6645 18.1599
lfingers 7.12502
lthumb 12.4526 47.769
rfemur 2.55642 -7.0223 23.3227
rtibia 12.5255
rfoot -23.743 -15.8896
rtoes -1.01971
lfemur -11.1009 -5.16476 -12.5653
ltibia 20.2174
lfoot -6.71447 -13.5172
ltoes 3.17717
441
root 2.78721 17.6512 0.149287 -169.596 70.1791 -168.728
lowerback 10.8774 3.80752 -0.186531
upperback 3.56031 5.16076 -2.39339
thorax -2.15629 2.66565 -3.01973
lowerneck -9.64936 3.21954 -0.36101
upperneck 13.4412 3.53221 7.9405
head 5.48767 2.37543 2.82438
rclavicle 6.89783e-014 -4.77083e-015
rhumerus 8.6175 62.6152 -76.4052
rradius 98.5144
rwrist -57.3545
rhand -23.9799 12.7033
rfingers 7.12502
rthumb 2.49682 -17.2618
lclavicle 6.89783e-014 -4.77083e-015
lhumerus 110.475 -65.8273 -59.5372
lradius 93.6166
lwrist 77.1614
lhand -12.8758 18.8559
lfingers 7.12502
lthumb 13.2129 48.4171
rfemur 2.51454 -6.93445 23.3595
rtibia 12.6318
rfoot -24.0782 -15.9186
rtoes 0.640924
lfemur -11.1224 -5.12975 -12.5481
ltibia 20.1614
lfoot -6.60896 -13.7198
ltoes 3.17382
442
root 2.78817 17.6514 0.139377 -169.718 69.9982 -168.973
lowerback 10.8872 3.8348 -0.279721
upperback 3.57682 5.18898 -2.42869
thorax -2.14782 2.68093 -3.00795
lowerneck -9.6404 3.14825 -0.408277
upperneck 13.4123 3.43146 8.05181
head 5.47868 2.33254 2.85932
rclavicle -6.67916e-014 -1.11319e-014
rhumerus 11.8619 63.8999 -71.5428
rradius 101.242
rwrist -57.5568
rhand -23.0023 12.2518
rfingers 7.12502
rthumb 3.44093 -17.7002
lclavicle -6.67916e-014 -1.11319e-014
lhumerus 109.195 -65.832 -59.326
lradius 96.9864
lwrist 78.3815
lhand -11.8436 19.5348
lfingers 7.12502
lthumb 14.2077 49.0288
rfemur 2.38133 -7.17426 23.2547
rtibia 12.7198
rfoot -24.1843 -15.7178
rtoes 0.989088
lfemur -11.2577 -5.04411 -12.632
ltibia 20.1165
lfoot -6.45482 -13.9941
ltoes 3.53803
443
root 2.7819 17.6538 0.129496 -169.974 69.8175 -169.43
lowerback 10.8944 3.85301 -0.374034
upperback 3.55802 5.20221 -2.51872
thorax -2.1703 2.68824 -3.05209
lowerneck -9.62904 3.11709 -0.351074
upperneck 13.4059 3.38056 8.07365
head 5.47802 2.31301 2.85303
rclavicle 3.83654e-014 -3.33958e-014
rhumerus 15.9273 64.7954 -65.9469
rradius 103.916
rwrist -57.6249
rhand -22.2735 11.9617
rfingers 7.12502
rthumb 4.14464 -17.9778
lclavicle 3.83654e-014 -3.33958e-014
lhumerus 107.27 -65.7376 -58.2822
lradius 100.319
lwrist 79.3517
lhand -10.8527 20.21
lfingers 7.12502
lthumb 15.1624 49.6345
rfemur 2.16792 -7.34788 23.0803
rtibia 12.7566
rfoot -24.1388 -15.6734
rtoes 0.923872
lfemur -11.5018 -5.06552 -12.8026
ltibia 20.0864
lfoot -6.32663 -14.1241
ltoes 3.72049
444
root 2.77622 17.6557 0.123337 -170.079 69.5864 -169.663
lowerback 10.9624 3.85226 -0.435803
upperback 3.5366 5.19279 -2.56955
thorax -2.23068 2.6835 -3.07621
lowerneck -9.57797 3.10573 -0.342005
upperneck 13.4084 3.35997 8.13852
head 5.47008 2.30898 2.86951
rclavicle -1.31595e-013 3.97569e-014
rhumerus 20.4362 65.2424 -60.0656
rradius 106.399
rwrist -57.4248
rhand -21.6789 12.0943
rfingers 7.12502
rthumb 4.7188 -17.8332
lclavicle -1.31595e-013 3.97569e-014
lhumerus 104.722 -65.483 -56.4953
lradius 103.74
lwrist 80.0926
lhand -9.97067 20.7257
lfingers 7.12502
lthumb 16.0119 50.084
rfemur 2.0279 -7.34769 23.0372
rtibia 12.7812
rfoot -24.1223 -15.8488
rtoes 0.699164
lfemur -11.6854 -5.05535 -12.8738
ltibia 20.0442
lfoot -6.10579 -14.296
ltoes 3.85677
445
root 2.77218 17.6565 0.121689 -170.09 69.3126 -169.769
lowerback 11.0389 3.83709 -0.558584
upperback 3.52071 5.15801 -2.55871
thorax -2.30229 2.66508 -2.99991
lowerneck -9.57022 3.08679 -0.378198
upperneck 13.4619 3.33494 8.17243
head 5.48515 2.29956 2.88558
rclavicle 5.60573e-014 -1.43125e-014
rhumerus 25.2606 65.1684 -53.9349
rradius 108.807
rwrist -57.2551
rhand -21.3215 12.4902
rfingers 7.12502
rthumb 5.06391 -17.4293
lclavicle 5.60573e-014 -1.43125e-014
lhumerus 101.529 -65.0934 -53.8363
lradius 107.109
lwrist 80.5706
lhand -9.41195 20.8945
lfingers 7.12502
lthumb 16.5499 50.2088
rfemur 1.90301 -7.42617 23.0637
rtibia 12.8607
rfoot -24.0962 -16.0197
rtoes 0.313739
lfemur -11.8339 -5.0484 -12.8706
ltibia 19.9664
lfoot -5.71805 -14.486
ltoes 4.88472
446
root 2.76556 17.6582 0.119084 -170.25 69.0511 -169.979
lowerback 11.1517 3.8085 -0.618969
upperback 3.547 5.11492 -2.61252
thorax -2.33843 2.64561 -3.02488
lowerneck -9.66895 3.06759 -0.386538
upperneck 13.5711 3.29666 8.23921
head 5.53665 2.2912 2.91061
rclavicle -4.37326e-015 1.90833e-014
rhumerus 30.0354 64.4043 -47.9892
rradius 111.215
rwrist -57.2593
rhand -21.0896 12.8423
rfingers 7.12502
rthumb 5.28779 -17.0718
lclavicle -4.37326e-015 1.90833e-014
lhumerus 97.8227 -64.371 -50.471
lradius 110.299
lwrist 80.7758
lhand -9.08657 20.8785
lfingers 7.12502
lthumb 16.8631 50.1663
rfemur 1.84794 -7.55661 23.0232
rtibia 12.899
rfoot -24.2308 -16.0386
rtoes 0.502057
lfemur -11.9408 -5.07811 -12.9195
ltibia 19.918
lfoot -5.35752 -14.6966
ltoes 6.16642
447
root 2.75627 17.6602 0.117831 -170.622 68.8708 -170.409
lowerback 11.2026 3.8162 -0.62829
upperback 3.60384 5.1293 -2.79313
thorax -2.28989 2.65884 -3.21017
lowerneck -9.7834 3.02973 -0.326492
upperneck 13.6854 3.21523 8.3811
head 5.5949 2.27318 2.94588
rclavicle -3.93594e-014 5.40694e-014
rhumerus 34.1083 62.9785 -42.9765
rradius 113.44
rwrist -57.3519
rhand -20.6438 13.1756
rfingers 7.12502
rthumb 5.71825 -16.7273
lclavicle -3.93594e-014 5.40694e-014
lhumerus 93.9284 -63.1654 -46.7904
lradius 113.309
lwrist 80.8178
lhand -8.47602 20.9416
lfingers 7.12502
lthumb 17.4508 50.1783
rfemur 1.82695 -7.57814 22.8941
rtibia 12.8415
rfoot -24.3292 -16.1076
rtoes 0.872358
lfemur -12.0636 -5.08013 -13.0645
ltibia 19.9274
lfoot -5.15974 -14.8922
ltoes 6.72795
448
root 2.74407 17.663 0.120683 -170.338 68.6936 -170.234
lowerback 11.3444 3.88964 -0.602806
upperback 3.49923 5.21894 -2.77042
thorax -2.47176 2.69872 -3.22953
lowerneck -9.77534 2.94285 -0.397112
upperneck 13.8947 3.10067 8.39024
head 5.66263 2.22183 2.95745
rclavicle -1.23246e-014 4.77083e-015
rhumerus 37.1705 61.2826 -38.8342
rradius 115.508
rwrist -57.2756
rhand -20.4515 13.4166
rfingers 7.12502
rthumb 5.90396 -16.4812
lclavicle -1.23246e-014 4.77083e-015
lhumerus 90.1584 -61.9209 -42.6114
lradius 116.016
lwrist 80.8038
lhand -7.77611 20.9692
lfingers 7.12502
lthumb 18.1243 50.1448
rfemur 1.69791 -7.41527 23.0631
rtibia 12.749
rfoot -24.411 -16.3924
rtoes 1.20447
lfemur -12.3015 -5.08448 -12.9486
ltibia 19.9281
lfoot -4.96522 -14.9949
ltoes 6.84705
